<svg xmlns="http://www.w3.org/2000/svg" width="1024" height="1024" style="fill:none">
   <g clip-path="url(#a)">
      <path style="fill:#30B27C" d="M512 1024c282.77 0 512-229.23 512-512S794.77 0 512 0 0 229.23 0 512s229.23 512 512 512Z"/>
      <path style="fill:#30B27C" d="M243.127 241h541v541h-541V241Z"/>
      <path style="fill:#fff" fill-rule="evenodd" d="M347.472 578.471a177.527 177.527 0 0 1-13.029-66.971c0-98.507 80.091-178.462 178.756-178.462 3.043 0 6.086.067 9.129.225l-8.566 48.487h-.563a129.907 129.907 0 0 0-122.897 172.038l52.882-30.476-11.27-38.862 43.347-48.69 59.6-16.23 21.685 21.64-32.527 32.46-21.663 5.41-16.252 21.64 6.063 22.947 16.862 16.704 26.892-3.224 15.531-16.049 44.407-11.88 7.935 29.575-43.866 43.415-63.906 13.142-24.751-25.72-52.973 30.521a129.723 129.723 0 0 0 106.78 40.598l12.759 47.563a178.534 178.534 0 0 1-162.593-63.32l-38.005 21.911a222.287 222.287 0 0 0 303.977 45.912 222.286 222.286 0 0 0 72.333-85.428l46.03 16.726A271.102 271.102 0 0 1 513.199 782c-142.238 0-259.026-109.665-270.072-248.86h48.961a220.437 220.437 0 0 0 17.492 67.174l37.892-21.843Zm372.163-148.955A222.325 222.325 0 0 0 513.199 289.69c-115.301 0-210.224 87.912-221.111 200.17h-48.961C254.173 350.665 370.961 241 513.199 241c149.519 0 270.928 121.207 270.928 270.5 0 24.886-3.381 48.983-9.693 71.908l-46.03-16.726a221.638 221.638 0 0 0 4.959-84.824l-42.355 11.316c.608 6.041.924 12.15.924 18.326 0 74.793-46.166 138.902-111.582 165.433l-12.758-47.585A129.79 129.79 0 0 0 643.151 511.5a129.927 129.927 0 0 0-86.064-122.153l8.566-48.487a179.309 179.309 0 0 1 111.694 99.972l42.288-11.316Z" clip-rule="evenodd"/>
   </g>
   <defs>
      <clipPath id="a">
         <path style="fill:#fff" d="M0 0h1024v1024H0z"/>
      </clipPath>
   </defs>
</svg>
